<svg xmlns="http://www.w3.org/2000/svg" viewBox="0 0 24 24" fill="none">
  <path d="M22.394 6.042L12.794 0.643C12.558 0.503 12.278 0.429 11.994 0.429C11.71 0.429 11.434 0.503 11.194 0.643L1.594 6.042C1.094 6.342 0.794 6.882 0.794 7.482V16.522C0.794 16.821 0.858 17.116 0.981 17.386C1.103 17.656 1.28 17.893 1.502 18.082L11.102 23.482C11.38 23.642 11.683 23.724 11.99 23.724C12.297 23.724 12.6 23.642 12.878 23.482L22.478 18.082C22.7 17.893 22.877 17.656 22.999 17.386C23.122 17.116 23.186 16.821 23.186 16.522V7.482C23.194 6.882 22.894 6.342 22.394 6.042Z" fill="#004482"/>
  <path d="M11.994 0.429C11.71 0.429 11.434 0.503 11.194 0.643L1.594 6.042C1.094 6.342 0.794 6.882 0.794 7.482V16.522C0.794 16.821 0.858 17.116 0.981 17.386C1.103 17.656 1.28 17.893 1.502 18.082L11.102 23.482C11.38 23.642 11.683 23.724 11.99 23.724V0.432C11.992 0.431 11.994 0.43 11.994 0.429Z" fill="#00599C"/>
  <path d="M7.116 13.602C8.696 15.902 11.994 16.002 13.716 13.642C14.514 12.562 14.856 11.203 14.442 9.682C14.378 9.433 14.285 9.191 14.166 8.962C13.894 8.442 13.527 7.977 13.083 7.59C12.077 6.716 10.68 6.402 9.398 6.782C8.115 7.162 7.107 8.182 6.708 9.482C6.317 10.757 6.462 12.143 7.116 13.302V13.602Z" fill="white"/>
  <path d="M11.988 13.002C13.064 13.001 13.996 12.257 14.242 11.205C14.488 10.153 13.986 9.076 13.038 8.586C12.09 8.096 10.92 8.33 10.255 9.143C9.59 9.956 9.691 11.135 10.494 11.831C10.886 12.17 11.386 12.36 11.906 12.358C11.933 12.358 11.962 12.357 11.988 12.355V13.002Z" fill="#004482"/>
  <path d="M16.2 7.8H15.8V7.4H15.4V7.8H15V8.2H15.4V8.6H15.8V8.2H16.2V7.8Z" fill="white"/>
  <path d="M17.4 7.8H17V7.4H16.6V7.8H16.2V8.2H16.6V8.6H17V8.2H17.4V7.8Z" fill="white"/>
  <path d="M18.9 10.2H18.5V9.8H18.1V10.2H17.7V10.6H18.1V11H18.5V10.6H18.9V10.2Z" fill="white"/>
  <path d="M20.1 10.2H19.7V9.8H19.3V10.2H18.9V10.6H19.3V11H19.7V10.6H20.1V10.2Z" fill="white"/>
</svg> 