<svg xmlns="http://www.w3.org/2000/svg" viewBox="0 0 24 24" fill="none">
  <rect width="20" height="20" x="2" y="2" fill="#F7DF1E" rx="2" />
  <path d="M15.39 18.24c.6.98 1.4 1.7 2.79 1.7 1.17 0 1.93-.59 1.93-1.4 0-.97-.77-1.32-2.07-1.88l-.71-.3c-2.05-.87-3.41-1.97-3.41-4.27 0-2.13 1.62-3.75 4.15-3.75 1.8 0 3.1.63 4.04 2.27l-2.21 1.42c-.49-.87-.99-1.22-1.83-1.22-.83 0-1.37.53-1.37 1.22 0 .85.52 1.2 1.73 1.73l.71.3c2.42 1.05 3.8 2.1 3.8 4.5 0 2.55-2.01 3.95-4.7 3.95-2.63 0-4.33-1.25-5.15-2.9l2.3-1.37Zm-10.01.16c.45.8.85 1.47 1.83 1.47.93 0 1.53-.37 1.53-1.78v-9.62h2.84v9.64c0 2.93-1.72 4.27-4.23 4.27-2.27 0-3.58-1.17-4.26-2.58l2.29-1.4Z" fill="#000" />
</svg> 