<svg xmlns="http://www.w3.org/2000/svg" viewBox="0 0 24 24" fill="none">
  <path d="M12 2.5a2.11 2.11 0 0 0-1.05.285L4.04 6.875a2.117 2.117 0 0 0-1.055 1.83v9.19c0 .755.41 1.456 1.055 1.83l6.91 4.09a2.107 2.107 0 0 0 2.1 0l6.91-4.09a2.117 2.117 0 0 0 1.055-1.83v-9.19a2.117 2.117 0 0 0-1.055-1.83l-6.91-4.09A2.11 2.11 0 0 0 12 2.5z" fill="#539E43"/>
  <path d="M14.915 14.46c-.075 0-.15-.02-.215-.06l-.69-.405c-.1-.055-.05-.075 0-.09.135-.045.165-.055.31-.14.015-.01.035 0 .05.01l.53.315c.02.01.045.01.065 0l2.05-1.185c.02-.01.03-.035.03-.06v-2.37c0-.025-.01-.045-.03-.06l-2.05-1.185c-.02-.01-.045-.01-.065 0l-2.05 1.185c-.02.01-.03.035-.03.06v2.37c0 .025.01.045.03.06l.56.325c.305.15.49-.03.49-.205v-2.34c0-.035.03-.065.065-.065h.26c.035 0 .065.03.065.065v2.34c0 .405-.22.635-.605.635-.12 0-.215 0-.48-.13l-.535-.31a.483.483 0 0 1-.245-.42v-2.37c0-.17.095-.33.245-.42l2.055-1.19a.508.508 0 0 1 .49 0l2.055 1.19c.15.09.245.25.245.42v2.37c0 .17-.095.33-.245.42l-2.055 1.19a.508.508 0 0 1-.245.06zm.56-1.64c-.9 0-1.085-.41-1.085-.755 0-.035.03-.065.065-.065h.265c.03 0 .055.02.06.05.045.29.165.435.695.435.425 0 .61-.095.61-.32 0-.13-.05-.225-.72-.29-.56-.075-.905-.18-.905-.63 0-.415.35-.665.94-.665.66 0 .985.23 1.025.725 0 .015-.005.03-.015.045s-.025.02-.04.02h-.265c-.03 0-.055-.02-.06-.05-.065-.3-.235-.395-.645-.395-.475 0-.53.165-.53.29 0 .15.065.195.695.28.625.085.93.205.93.635 0 .45-.375.7-1.03.7z" fill="#fff"/>
  <path d="M10.585 13.65c0 .115-.095.21-.21.21h-.465c-.115 0-.21-.095-.21-.21v-2.795h-.785c-.115 0-.21-.095-.21-.21v-.465c0-.115.095-.21.21-.21h2.455c.115 0 .21.095.21.21v.465c0 .115-.095.21-.21.21h-.785v2.795z" fill="#fff"/>
</svg> 