<svg xmlns="http://www.w3.org/2000/svg" viewBox="0 0 24 24" fill="none">
  <path d="M11.93,2c-5.54,0-5.2,2.41-5.2,2.41l.006,2.5h5.3v.75H4.66c0,0-3.85-.433-3.85,5.64s3.36,5.82,3.36,5.82h2v-2.8s-.108-3.35,3.28-3.35h5.65c0,0,3.17,.056,3.17-3.07v-5.16c0,0,.48-3.09-5.36-3.09Zm-2.93,1.83c.529,0,.959,.43,.959,.96s-.43,.96-.959,.96-.96-.43-.96-.96,.431-.96,.96-.96Z" fill="#3776ab"/>
  <path d="M12.07,22c5.54,0,5.2-2.41,5.2-2.41l-.006-2.5h-5.3v-.75h7.37c0,0,3.85,.433,3.85-5.64s-3.36-5.82-3.36-5.82h-2v2.8s.108,3.35-3.28,3.35h-5.65c0,0-3.17-.056-3.17,3.07v5.16c0,0-.48,3.09,5.36,3.09Zm2.93-1.83c-.529,0-.959-.43-.959-.96s.43-.96,.959-.96,.96,.43,.96,.96-.431,.96-.96,.96Z" fill="#ffd43b"/>
</svg> 