<svg xmlns="http://www.w3.org/2000/svg" viewBox="0 0 24 24" fill="none">
  <path d="M12 13.5a1.5 1.5 0 1 0 0-3 1.5 1.5 0 0 0 0 3Z" fill="#61DAFB" />
  <path d="M12 21.75c-2.986 0-5.434-.866-7.278-2.44-1.852-1.581-2.972-3.777-2.972-6.31 0-2.533 1.12-4.729 2.972-6.31C6.566 5.116 9.014 4.25 12 4.25c2.986 0 5.434.866 7.278 2.44 1.852 1.581 2.972 3.777 2.972 6.31 0 2.533-1.12 4.729-2.972 6.31-1.844 1.574-4.292 2.44-7.278 2.44Zm0-16c-2.746 0-4.883.791-6.447 2.125-1.571 1.34-2.553 3.242-2.553 5.375s.982 4.035 2.553 5.375C7.117 19.959 9.254 20.75 12 20.75c2.746 0 4.883-.791 6.447-2.125 1.571-1.34 2.553-3.242 2.553-5.375s-.982-4.035-2.553-5.375C16.883 6.541 14.746 5.75 12 5.75Z" fill="#61DAFB" />
  <path d="M12 17.75c-3.273 0-5.972-2.103-7.228-5.227-1.272-3.162-.39-6.635 2.275-8.964a.5.5 0 0 1 .67.743c-2.303 2.023-3.07 5.057-1.969 7.847 1.07 2.703 3.39 4.601 6.252 4.601 2.862 0 5.183-1.898 6.252-4.601 1.101-2.79.334-5.824-1.969-7.847a.5.5 0 0 1 .67-.743c2.665 2.329 3.547 5.802 2.275 8.964-1.256 3.124-3.955 5.227-7.228 5.227Z" fill="#61DAFB" />
  <path d="M12 17.75c-3.273 0-5.972-2.103-7.228-5.227-1.272-3.162-.39-6.635 2.275-8.964a.5.5 0 0 1 .67.743c-2.303 2.023-3.07 5.057-1.969 7.847 1.07 2.703 3.39 4.601 6.252 4.601 2.862 0 5.183-1.898 6.252-4.601 1.101-2.79.334-5.824-1.969-7.847a.5.5 0 0 1 .67-.743c2.665 2.329 3.547 5.802 2.275 8.964-1.256 3.124-3.955 5.227-7.228 5.227Z" fill="#61DAFB" transform="rotate(60 12 12)" />
  <path d="M12 17.75c-3.273 0-5.972-2.103-7.228-5.227-1.272-3.162-.39-6.635 2.275-8.964a.5.5 0 0 1 .67.743c-2.303 2.023-3.07 5.057-1.969 7.847 1.07 2.703 3.39 4.601 6.252 4.601 2.862 0 5.183-1.898 6.252-4.601 1.101-2.79.334-5.824-1.969-7.847a.5.5 0 0 1 .67-.743c2.665 2.329 3.547 5.802 2.275 8.964-1.256 3.124-3.955 5.227-7.228 5.227Z" fill="#61DAFB" transform="rotate(120 12 12)" />
</svg> 