<svg xmlns="http://www.w3.org/2000/svg" viewBox="0 0 24 24" fill="none">
  <rect width="20" height="20" x="2" y="2" fill="#3178C6" rx="2" />
  <path fill-rule="evenodd" clip-rule="evenodd" d="M7.5 11.5h3v8h-1.5v-6.5h-1.5v-1.5zm11.9 1.5c-.32-.8-1.1-1.25-2.15-1.25-1.53 0-2.5.98-2.5 2.48 0 1.5.97 2.52 2.67 2.52.89 0 1.56-.33 2.01-.87l.09-.1v-1.1l-.15.17c-.37.43-.9.66-1.57.66-.86 0-1.44-.54-1.51-1.34h4.51l.01-.22v-.12c0-.3-.25-1.46-1.41-2.67V13l-.09-.13c-.39-.56-1.06-.87-1.91-.87v.25 8h-1.5v-8H14v-.25c0-.22.02-.44.06-.63l.04-.2c.06-.24.16-.47.29-.69l.07-.11c.14-.2.3-.38.5-.54l.12-.1a3.39 3.39 0 0 1 3.74 0l.13.1c.2.16.36.33.5.54l.07.11c.12.21.22.44.28.69l.05.2c.04.19.06.41.06.63v.25h-1.51V13h.01zm-1.65-.9c.23 0 .41.07.54.15l.09.05c.18.12.33.3.43.53l.03.09v.1h-2.18v-.1l.03-.09c.1-.23.25-.41.43-.53l.09-.05c.13-.08.31-.15.54-.15z" fill="white" />
</svg> 