<svg width="1920" height="1080" xmlns="http://www.w3.org/2000/svg">
  <!-- Background gradient -->
  <defs>
    <linearGradient id="bgGradient" x1="0%" y1="0%" x2="100%" y2="100%">
      <stop offset="0%" stop-color="#0066cc" />
      <stop offset="50%" stop-color="#1982f8" />
      <stop offset="100%" stop-color="#2e8ffd" />
    </linearGradient>
    
    <!-- Grid pattern -->
    <pattern id="grid" width="40" height="40" patternUnits="userSpaceOnUse">
      <path d="M 40 0 L 0 0 0 40" fill="none" stroke="#ffffff" stroke-opacity="0.05" stroke-width="1"/>
    </pattern>
  </defs>
  
  <!-- Base background with gradient -->
  <rect width="100%" height="100%" fill="url(#bgGradient)" />
  
  <!-- Grid overlay -->
  <rect width="100%" height="100%" fill="url(#grid)" />
  
  <!-- Abstract educational elements -->
  <!-- Books stack -->
  <rect x="200" y="650" width="120" height="30" rx="2" fill="#ffffff" fill-opacity="0.2" />
  <rect x="220" y="620" width="120" height="30" rx="2" fill="#ffffff" fill-opacity="0.2" />
  <rect x="190" y="590" width="120" height="30" rx="2" fill="#ffffff" fill-opacity="0.2" />
  
  <!-- Computer monitor -->
  <rect x="1500" y="600" width="180" height="120" rx="5" fill="#ffffff" fill-opacity="0.2" />
  <rect x="1540" y="720" width="100" height="20" fill="#ffffff" fill-opacity="0.2" />
  
  <!-- Light circles -->
  <circle cx="400" cy="400" r="150" fill="#ffffff" fill-opacity="0.05" />
  <circle cx="1600" cy="300" r="200" fill="#ffffff" fill-opacity="0.05" />
  <circle cx="1000" cy="800" r="250" fill="#ffffff" fill-opacity="0.05" />
  
  <!-- Abstract path -->
  <path d="M0,500 Q400,300 800,500 T1600,500 T1920,400" stroke="#ffffff" stroke-opacity="0.1" stroke-width="10" fill="none" />
  
  <!-- Small decorative elements -->
  <circle cx="700" cy="250" r="5" fill="#ffffff" fill-opacity="0.5" />
  <circle cx="750" cy="200" r="3" fill="#ffffff" fill-opacity="0.5" />
  <circle cx="680" cy="210" r="4" fill="#ffffff" fill-opacity="0.5" />
  
  <circle cx="1200" cy="350" r="5" fill="#ffffff" fill-opacity="0.5" />
  <circle cx="1250" cy="300" r="3" fill="#ffffff" fill-opacity="0.5" />
  <circle cx="1180" cy="310" r="4" fill="#ffffff" fill-opacity="0.5" />
</svg> 